<svg width="188" height="40" viewBox="0 0 188 40" fill="none" xmlns="http://www.w3.org/2000/svg">
<circle cx="80" cy="20" r="3.5" fill="white" stroke="#E3F2FB"/>
<circle cx="80" cy="28" r="5" fill="#5B8387"/>
<circle cx="80" cy="11" r="4" fill="#F5CF73"/>
<path d="M23.584 32.32C20.32 32.32 17.8347 31.3067 16.128 29.28C14.4427 27.2533 13.6 24.4267 13.6 20.8C13.6 17.216 14.464 14.4 16.192 12.352C17.9413 10.304 20.4053 9.28 23.584 9.28C26.208 9.28 28.2987 9.984 29.856 11.392L29.6 15.04H28.992C28.7787 14.4427 28.5867 13.312 28.416 11.648C27.9467 11.264 27.328 10.944 26.56 10.688C25.8133 10.432 25.0133 10.304 24.16 10.304C21.3653 10.304 19.2853 11.264 17.92 13.184C16.576 15.0827 15.904 17.6213 15.904 20.8C15.904 24.0213 16.544 26.5813 17.824 28.48C19.1253 30.3573 21.1947 31.296 24.032 31.296C24.8 31.296 25.6853 31.1573 26.688 30.88C27.712 30.5813 28.64 30.1653 29.472 29.632L29.824 30.336C29.0987 30.976 28.192 31.4667 27.104 31.808C26.0373 32.1493 24.864 32.32 23.584 32.32ZM39.6645 32.32C38.0432 32.32 36.6032 32.0533 35.3445 31.52C34.0858 30.9653 33.1045 30.2613 32.4005 29.408L32.6885 25.152H33.2645C33.4992 25.7707 33.6805 27.0507 33.8085 28.992C34.3632 29.696 35.0885 30.2613 35.9845 30.688C36.9018 31.0933 37.9472 31.296 39.1205 31.296C40.1018 31.296 41.0192 31.1147 41.8725 30.752C42.7472 30.3893 43.4405 29.856 43.9525 29.152C44.4858 28.4267 44.7525 27.5733 44.7525 26.592C44.7525 25.568 44.4858 24.704 43.9525 24C43.4405 23.296 42.8005 22.7307 42.0325 22.304C41.2858 21.856 40.2405 21.3227 38.8965 20.704C37.5525 20.1067 36.4752 19.5733 35.6645 19.104C34.8752 18.6133 34.2032 17.9947 33.6485 17.248C33.0938 16.48 32.8165 15.552 32.8165 14.464C32.8165 12.7573 33.4565 11.4667 34.7365 10.592C36.0165 9.71733 37.7552 9.28 39.9525 9.28C42.7472 9.28 44.8485 10.0373 46.2565 11.552L45.9685 15.104H45.3925C45.1578 14.528 44.9658 13.4187 44.8165 11.776C44.3258 11.3067 43.7178 10.944 42.9925 10.688C42.2672 10.432 41.4565 10.304 40.5605 10.304C38.7472 10.304 37.3818 10.6453 36.4645 11.328C35.5685 11.9893 35.1205 12.9387 35.1205 14.176C35.1205 14.9227 35.3445 15.5733 35.7925 16.128C36.2405 16.6827 36.7952 17.152 37.4565 17.536C38.1392 17.92 39.0672 18.3787 40.2405 18.912C41.6912 19.5733 42.8645 20.1813 43.7605 20.736C44.6778 21.2907 45.4565 22.0267 46.0965 22.944C46.7365 23.84 47.0565 24.9387 47.0565 26.24C47.0565 27.456 46.7365 28.5227 46.0965 29.44C45.4565 30.3573 44.5712 31.072 43.4405 31.584C42.3312 32.0747 41.0725 32.32 39.6645 32.32ZM49.5635 31.712C50.4382 31.4347 51.3022 31.2533 52.1555 31.168V10.496C51.1742 10.3467 50.3102 10.1547 49.5635 9.92V9.6H54.9715L62.3955 27.392L70.1715 9.6H75.4835V9.92C74.8648 10.1333 74.0008 10.336 72.8915 10.528V31.168C73.7448 31.2533 74.6088 31.4347 75.4835 31.712V32H68.0275V31.712C68.7955 31.456 69.6595 31.264 70.6195 31.136V11.328L62.6195 29.504H61.3075L53.4355 11.2V31.136C54.3315 31.264 55.1955 31.456 56.0275 31.712V32H49.5635V31.712Z" fill="#0D3E5B"/>
<path d="M95.416 17.12C94.152 17.12 93.192 16.74 92.536 15.98C91.888 15.22 91.564 14.16 91.564 12.8C91.564 11.448 91.896 10.392 92.56 9.632C93.224 8.864 94.172 8.48 95.404 8.48C96.452 8.48 97.28 8.756 97.888 9.308L97.78 10.772H97.492C97.396 10.492 97.32 10.044 97.264 9.428C97.072 9.276 96.84 9.156 96.568 9.068C96.296 8.972 96.004 8.924 95.692 8.924C94.692 8.924 93.94 9.276 93.436 9.98C92.94 10.684 92.692 11.624 92.692 12.8C92.692 13.992 92.924 14.936 93.388 15.632C93.86 16.328 94.6 16.676 95.608 16.676C95.912 16.676 96.256 16.62 96.64 16.508C97.032 16.396 97.388 16.236 97.708 16.028L97.864 16.352C97.584 16.6 97.228 16.792 96.796 16.928C96.372 17.056 95.912 17.12 95.416 17.12ZM101.91 17.12C100.91 17.12 100.13 16.848 99.5697 16.304C99.0177 15.76 98.7417 15 98.7417 14.024C98.7417 13.048 99.0177 12.288 99.5697 11.744C100.13 11.192 100.91 10.916 101.91 10.916C102.902 10.916 103.674 11.192 104.226 11.744C104.786 12.288 105.066 13.048 105.066 14.024C105.066 15 104.786 15.76 104.226 16.304C103.674 16.848 102.902 17.12 101.91 17.12ZM101.91 16.7C102.542 16.7 103.046 16.464 103.422 15.992C103.798 15.512 103.986 14.856 103.986 14.024C103.986 13.192 103.798 12.54 103.422 12.068C103.046 11.588 102.542 11.348 101.91 11.348C101.262 11.348 100.75 11.588 100.374 12.068C100.006 12.54 99.8217 13.192 99.8217 14.024C99.8217 14.856 100.006 15.512 100.374 15.992C100.75 16.464 101.262 16.7 101.91 16.7ZM115.567 16.64C115.887 16.688 116.207 16.764 116.527 16.868V17H113.563V16.868C113.931 16.748 114.235 16.672 114.475 16.64V12.704C114.475 12.224 114.359 11.88 114.127 11.672C113.903 11.456 113.599 11.348 113.215 11.348C112.927 11.348 112.647 11.432 112.375 11.6C112.103 11.76 111.855 11.976 111.631 12.248C111.655 12.368 111.667 12.488 111.667 12.608V16.64C111.979 16.688 112.279 16.764 112.567 16.868V17H109.723V16.868C110.099 16.748 110.399 16.672 110.623 16.64V12.704C110.623 11.8 110.211 11.348 109.387 11.348C109.099 11.348 108.815 11.432 108.535 11.6C108.263 11.76 108.019 11.98 107.803 12.26V16.64C108.123 16.688 108.443 16.764 108.763 16.868V17H105.763V16.868C106.083 16.764 106.403 16.688 106.723 16.64V11.432C106.387 11.368 106.107 11.296 105.883 11.216V11.132L107.803 10.928V11.792C108.035 11.552 108.311 11.348 108.631 11.18C108.959 11.004 109.319 10.916 109.711 10.916C110.159 10.916 110.539 11.004 110.851 11.18C111.171 11.348 111.399 11.592 111.535 11.912C111.767 11.632 112.059 11.396 112.411 11.204C112.763 11.012 113.155 10.916 113.587 10.916C114.179 10.916 114.655 11.068 115.015 11.372C115.383 11.676 115.567 12.088 115.567 12.608V16.64ZM126.946 16.64C127.266 16.688 127.586 16.764 127.906 16.868V17H124.942V16.868C125.31 16.748 125.614 16.672 125.854 16.64V12.704C125.854 12.224 125.738 11.88 125.506 11.672C125.282 11.456 124.978 11.348 124.594 11.348C124.306 11.348 124.026 11.432 123.754 11.6C123.482 11.76 123.234 11.976 123.01 12.248C123.034 12.368 123.046 12.488 123.046 12.608V16.64C123.358 16.688 123.658 16.764 123.946 16.868V17H121.102V16.868C121.478 16.748 121.778 16.672 122.002 16.64V12.704C122.002 11.8 121.59 11.348 120.766 11.348C120.478 11.348 120.194 11.432 119.914 11.6C119.642 11.76 119.398 11.98 119.182 12.26V16.64C119.502 16.688 119.822 16.764 120.142 16.868V17H117.142V16.868C117.462 16.764 117.782 16.688 118.102 16.64V11.432C117.766 11.368 117.486 11.296 117.262 11.216V11.132L119.182 10.928V11.792C119.414 11.552 119.69 11.348 120.01 11.18C120.338 11.004 120.698 10.916 121.09 10.916C121.538 10.916 121.918 11.004 122.23 11.18C122.55 11.348 122.778 11.592 122.914 11.912C123.146 11.632 123.438 11.396 123.79 11.204C124.142 11.012 124.534 10.916 124.966 10.916C125.558 10.916 126.034 11.068 126.394 11.372C126.762 11.676 126.946 12.088 126.946 12.608V16.64ZM134.628 16.628C134.86 16.66 135.14 16.724 135.468 16.82V16.916L133.548 17.108V16.328C133.252 16.552 132.908 16.74 132.516 16.892C132.132 17.044 131.728 17.12 131.304 17.12C130.672 17.12 130.172 16.972 129.804 16.676C129.436 16.372 129.252 15.964 129.252 15.452V11.432C128.9 11.368 128.62 11.296 128.412 11.216V11.132L130.332 10.928V15.332C130.332 15.812 130.444 16.16 130.668 16.376C130.9 16.592 131.212 16.7 131.604 16.7C131.9 16.7 132.228 16.624 132.588 16.472C132.956 16.32 133.276 16.124 133.548 15.884V11.432C133.212 11.368 132.936 11.296 132.72 11.216V11.132L134.628 10.928V16.628ZM142.462 16.64C142.838 16.696 143.158 16.772 143.422 16.868V17H140.47V16.868C140.814 16.756 141.118 16.68 141.382 16.64V12.704C141.382 12.224 141.266 11.88 141.034 11.672C140.802 11.456 140.494 11.348 140.11 11.348C139.79 11.348 139.454 11.432 139.102 11.6C138.75 11.76 138.434 11.992 138.154 12.296V16.64C138.474 16.688 138.794 16.764 139.114 16.868V17H136.114V16.868C136.434 16.764 136.754 16.688 137.074 16.64V11.432C136.738 11.368 136.458 11.296 136.234 11.216V11.132L138.154 10.928V11.84C138.434 11.568 138.774 11.348 139.174 11.18C139.582 11.004 140.018 10.916 140.482 10.916C141.074 10.916 141.55 11.068 141.91 11.372C142.278 11.676 142.462 12.088 142.462 12.608V16.64ZM145.392 10.388C145.192 10.388 145.028 10.328 144.9 10.208C144.78 10.088 144.72 9.932 144.72 9.74C144.72 9.548 144.78 9.392 144.9 9.272C145.028 9.144 145.192 9.08 145.392 9.08C145.592 9.08 145.752 9.144 145.872 9.272C146 9.392 146.064 9.548 146.064 9.74C146.064 9.932 146 10.088 145.872 10.208C145.752 10.328 145.592 10.388 145.392 10.388ZM143.976 16.868C144.128 16.812 144.312 16.764 144.528 16.724C144.744 16.676 144.88 16.648 144.936 16.64V11.444C144.616 11.388 144.336 11.32 144.096 11.24V11.144L146.016 10.952V16.64C146.384 16.704 146.704 16.78 146.976 16.868V17H143.976V16.868ZM151.569 16.94C151.209 17.06 150.801 17.12 150.345 17.12C149.777 17.12 149.333 16.976 149.013 16.688C148.693 16.4 148.533 15.956 148.533 15.356V11.456H147.489V11.024H148.533V10.364C148.837 10.236 149.025 9.916 149.097 9.404H149.613V11.024H151.413V11.456H149.613V15.356C149.613 15.836 149.705 16.176 149.889 16.376C150.081 16.576 150.353 16.676 150.705 16.676C150.937 16.676 151.197 16.628 151.485 16.532L151.569 16.94ZM158.599 11.024V11.156C158.399 11.228 158.123 11.296 157.771 11.36L155.455 17.552C155.295 17.984 155.143 18.32 154.999 18.56C154.863 18.8 154.683 18.984 154.459 19.112C154.235 19.24 153.939 19.304 153.571 19.304C153.187 19.304 152.819 19.232 152.467 19.088L152.635 18.56C152.987 18.672 153.295 18.728 153.559 18.728C153.799 18.728 153.991 18.688 154.135 18.608C154.279 18.528 154.411 18.388 154.531 18.188C154.651 17.996 154.783 17.708 154.927 17.324L155.059 16.964L152.755 11.348C152.403 11.308 152.135 11.244 151.951 11.156V11.024H154.735V11.168C154.543 11.24 154.227 11.308 153.787 11.372L155.479 15.836L157.135 11.348C156.815 11.324 156.523 11.264 156.259 11.168V11.024H158.599ZM94.216 32.12C93.592 32.12 93.032 32.02 92.536 31.82C92.048 31.612 91.672 31.344 91.408 31.016L91.528 29.384H91.804C91.876 29.584 91.948 30.076 92.02 30.86C92.228 31.108 92.496 31.308 92.824 31.46C93.152 31.604 93.524 31.676 93.94 31.676C94.508 31.676 94.992 31.528 95.392 31.232C95.792 30.928 95.992 30.504 95.992 29.96C95.992 29.6 95.896 29.296 95.704 29.048C95.512 28.792 95.276 28.584 94.996 28.424C94.716 28.264 94.34 28.08 93.868 27.872C93.356 27.648 92.948 27.448 92.644 27.272C92.34 27.096 92.08 26.864 91.864 26.576C91.656 26.28 91.552 25.916 91.552 25.484C91.552 24.828 91.804 24.332 92.308 23.996C92.812 23.652 93.492 23.48 94.348 23.48C95.444 23.48 96.268 23.768 96.82 24.344L96.7 25.748H96.424C96.32 25.452 96.244 25.02 96.196 24.452C96.012 24.284 95.784 24.156 95.512 24.068C95.248 23.972 94.952 23.924 94.624 23.924C93.984 23.924 93.5 24.044 93.172 24.284C92.844 24.524 92.68 24.872 92.68 25.328C92.68 25.592 92.76 25.824 92.92 26.024C93.088 26.216 93.292 26.384 93.532 26.528C93.78 26.664 94.116 26.824 94.54 27.008C95.092 27.248 95.536 27.472 95.872 27.68C96.216 27.88 96.508 28.156 96.748 28.508C96.996 28.852 97.12 29.28 97.12 29.792C97.12 30.264 96.992 30.676 96.736 31.028C96.488 31.38 96.144 31.652 95.704 31.844C95.264 32.028 94.768 32.12 94.216 32.12ZM101.007 32.12C100.375 32.12 99.8231 31.992 99.3511 31.736C98.8871 31.48 98.5271 31.12 98.2711 30.656C98.0231 30.184 97.8991 29.64 97.8991 29.024C97.8991 28.048 98.1831 27.288 98.7511 26.744C99.3271 26.192 100.095 25.916 101.055 25.916C101.919 25.916 102.635 26.156 103.203 26.636L103.119 27.944H102.879C102.831 27.824 102.791 27.648 102.759 27.416C102.727 27.176 102.707 26.96 102.699 26.768C102.275 26.488 101.827 26.348 101.355 26.348C100.595 26.348 100.011 26.584 99.6031 27.056C99.1951 27.528 98.9911 28.208 98.9911 29.096C98.9911 29.552 99.0711 29.98 99.2311 30.38C99.3991 30.772 99.6551 31.092 99.9991 31.34C100.343 31.588 100.775 31.712 101.295 31.712C101.615 31.712 101.939 31.66 102.267 31.556C102.603 31.444 102.891 31.3 103.131 31.124L103.239 31.436C102.999 31.636 102.687 31.8 102.303 31.928C101.919 32.056 101.487 32.12 101.007 32.12ZM105.22 25.388C105.02 25.388 104.856 25.328 104.728 25.208C104.608 25.088 104.548 24.932 104.548 24.74C104.548 24.548 104.608 24.392 104.728 24.272C104.856 24.144 105.02 24.08 105.22 24.08C105.42 24.08 105.58 24.144 105.7 24.272C105.828 24.392 105.892 24.548 105.892 24.74C105.892 24.932 105.828 25.088 105.7 25.208C105.58 25.328 105.42 25.388 105.22 25.388ZM103.804 31.868C103.956 31.812 104.14 31.764 104.356 31.724C104.572 31.676 104.708 31.648 104.764 31.64V26.444C104.444 26.388 104.164 26.32 103.924 26.24V26.144L105.844 25.952V31.64C106.212 31.704 106.532 31.78 106.804 31.868V32H103.804V31.868ZM113.161 29.024H108.541C108.549 29.808 108.749 30.452 109.141 30.956C109.541 31.46 110.117 31.712 110.869 31.712C111.189 31.712 111.521 31.66 111.865 31.556C112.217 31.444 112.521 31.3 112.777 31.124L112.885 31.436C112.653 31.628 112.333 31.792 111.925 31.928C111.525 32.056 111.085 32.12 110.605 32.12C109.973 32.12 109.417 31.992 108.937 31.736C108.465 31.472 108.097 31.108 107.833 30.644C107.577 30.172 107.449 29.632 107.449 29.024C107.449 28.04 107.717 27.276 108.253 26.732C108.797 26.188 109.541 25.916 110.485 25.916C111.085 25.916 111.585 26.044 111.985 26.3C112.385 26.556 112.681 26.9 112.873 27.332C113.065 27.756 113.161 28.228 113.161 28.748V29.024ZM112.201 28.604C112.201 28.244 112.145 27.892 112.033 27.548C111.921 27.204 111.737 26.92 111.481 26.696C111.233 26.464 110.909 26.348 110.509 26.348C109.909 26.348 109.445 26.56 109.117 26.984C108.797 27.408 108.609 27.948 108.553 28.604H112.201ZM120.255 31.64C120.631 31.696 120.951 31.772 121.215 31.868V32H118.263V31.868C118.607 31.756 118.911 31.68 119.175 31.64V27.704C119.175 27.224 119.059 26.88 118.827 26.672C118.595 26.456 118.287 26.348 117.903 26.348C117.583 26.348 117.247 26.432 116.895 26.6C116.543 26.76 116.227 26.992 115.947 27.296V31.64C116.267 31.688 116.587 31.764 116.907 31.868V32H113.907V31.868C114.227 31.764 114.547 31.688 114.867 31.64V26.432C114.531 26.368 114.251 26.296 114.027 26.216V26.132L115.947 25.928V26.84C116.227 26.568 116.567 26.348 116.967 26.18C117.375 26.004 117.811 25.916 118.275 25.916C118.867 25.916 119.343 26.068 119.703 26.372C120.071 26.676 120.255 27.088 120.255 27.608V31.64ZM124.925 32.12C124.293 32.12 123.741 31.992 123.269 31.736C122.805 31.48 122.445 31.12 122.189 30.656C121.941 30.184 121.817 29.64 121.817 29.024C121.817 28.048 122.101 27.288 122.669 26.744C123.245 26.192 124.013 25.916 124.973 25.916C125.837 25.916 126.553 26.156 127.121 26.636L127.037 27.944H126.797C126.749 27.824 126.709 27.648 126.677 27.416C126.645 27.176 126.625 26.96 126.617 26.768C126.193 26.488 125.745 26.348 125.273 26.348C124.513 26.348 123.929 26.584 123.521 27.056C123.113 27.528 122.909 28.208 122.909 29.096C122.909 29.552 122.989 29.98 123.149 30.38C123.317 30.772 123.573 31.092 123.917 31.34C124.261 31.588 124.693 31.712 125.213 31.712C125.533 31.712 125.857 31.66 126.185 31.556C126.521 31.444 126.809 31.3 127.049 31.124L127.157 31.436C126.917 31.636 126.605 31.8 126.221 31.928C125.837 32.056 125.405 32.12 124.925 32.12ZM133.446 29.024H128.826C128.834 29.808 129.034 30.452 129.426 30.956C129.826 31.46 130.402 31.712 131.154 31.712C131.474 31.712 131.806 31.66 132.15 31.556C132.502 31.444 132.806 31.3 133.062 31.124L133.17 31.436C132.938 31.628 132.618 31.792 132.21 31.928C131.81 32.056 131.37 32.12 130.89 32.12C130.258 32.12 129.702 31.992 129.222 31.736C128.75 31.472 128.382 31.108 128.118 30.644C127.862 30.172 127.734 29.632 127.734 29.024C127.734 28.04 128.002 27.276 128.538 26.732C129.082 26.188 129.826 25.916 130.77 25.916C131.37 25.916 131.87 26.044 132.27 26.3C132.67 26.556 132.966 26.9 133.158 27.332C133.35 27.756 133.446 28.228 133.446 28.748V29.024ZM132.486 28.604C132.486 28.244 132.43 27.892 132.318 27.548C132.206 27.204 132.022 26.92 131.766 26.696C131.518 26.464 131.194 26.348 130.794 26.348C130.194 26.348 129.73 26.56 129.402 26.984C129.082 27.408 128.894 27.948 128.838 28.604H132.486ZM137.429 31.868C137.725 31.78 138.045 31.708 138.389 31.652V23.972C138.005 23.916 137.685 23.84 137.429 23.744V23.6H139.673L142.361 30.128L145.205 23.6H147.425V23.744C147.129 23.84 146.809 23.92 146.465 23.984V31.652C146.809 31.708 147.129 31.78 147.425 31.868V32H144.389V31.868C144.661 31.78 144.981 31.704 145.349 31.64V24.44L142.445 31.076H141.797L138.941 24.368V31.64C139.309 31.704 139.629 31.78 139.901 31.868V32H137.429V31.868ZM154.386 31.628C154.618 31.66 154.898 31.724 155.226 31.82V31.916L153.306 32.108V31.328C153.01 31.552 152.666 31.74 152.274 31.892C151.89 32.044 151.486 32.12 151.062 32.12C150.43 32.12 149.93 31.972 149.562 31.676C149.194 31.372 149.01 30.964 149.01 30.452V26.432C148.658 26.368 148.378 26.296 148.17 26.216V26.132L150.09 25.928V30.332C150.09 30.812 150.202 31.16 150.426 31.376C150.658 31.592 150.97 31.7 151.362 31.7C151.658 31.7 151.986 31.624 152.346 31.472C152.714 31.32 153.034 31.124 153.306 30.884V26.432C152.97 26.368 152.694 26.296 152.478 26.216V26.132L154.386 25.928V31.628ZM158.344 32.12C157.816 32.12 157.352 32.056 156.952 31.928C156.552 31.8 156.228 31.624 155.98 31.4L156.064 29.9H156.316C156.356 30.012 156.392 30.212 156.424 30.5C156.464 30.788 156.488 31.036 156.496 31.244C156.856 31.548 157.344 31.7 157.96 31.7C158.456 31.7 158.844 31.592 159.124 31.376C159.412 31.152 159.556 30.856 159.556 30.488C159.556 30.184 159.428 29.948 159.172 29.78C158.916 29.604 158.524 29.424 157.996 29.24C157.556 29.072 157.204 28.924 156.94 28.796C156.676 28.66 156.448 28.476 156.256 28.244C156.072 28.012 155.98 27.72 155.98 27.368C155.98 26.888 156.192 26.528 156.616 26.288C157.04 26.04 157.572 25.916 158.212 25.916C159.116 25.916 159.816 26.124 160.312 26.54L160.204 27.776H159.94C159.892 27.656 159.852 27.492 159.82 27.284C159.796 27.076 159.784 26.88 159.784 26.696C159.424 26.456 158.976 26.336 158.44 26.336C158.016 26.336 157.676 26.412 157.42 26.564C157.164 26.708 157.036 26.932 157.036 27.236C157.036 27.452 157.104 27.636 157.24 27.788C157.384 27.94 157.56 28.068 157.768 28.172C157.976 28.276 158.26 28.396 158.62 28.532C159.06 28.7 159.412 28.856 159.676 29C159.94 29.136 160.164 29.32 160.348 29.552C160.54 29.784 160.636 30.072 160.636 30.416C160.636 30.968 160.42 31.392 159.988 31.688C159.556 31.976 159.008 32.12 158.344 32.12ZM167.337 29.024H162.717C162.725 29.808 162.925 30.452 163.317 30.956C163.717 31.46 164.293 31.712 165.045 31.712C165.365 31.712 165.697 31.66 166.041 31.556C166.393 31.444 166.697 31.3 166.953 31.124L167.061 31.436C166.829 31.628 166.509 31.792 166.101 31.928C165.701 32.056 165.261 32.12 164.781 32.12C164.149 32.12 163.593 31.992 163.113 31.736C162.641 31.472 162.273 31.108 162.009 30.644C161.753 30.172 161.625 29.632 161.625 29.024C161.625 28.04 161.893 27.276 162.429 26.732C162.973 26.188 163.717 25.916 164.661 25.916C165.261 25.916 165.761 26.044 166.161 26.3C166.561 26.556 166.857 26.9 167.049 27.332C167.241 27.756 167.337 28.228 167.337 28.748V29.024ZM166.377 28.604C166.377 28.244 166.321 27.892 166.209 27.548C166.097 27.204 165.913 26.92 165.657 26.696C165.409 26.464 165.085 26.348 164.685 26.348C164.085 26.348 163.621 26.56 163.293 26.984C162.973 27.408 162.785 27.948 162.729 28.604H166.377ZM174.191 31.628C174.423 31.66 174.703 31.724 175.031 31.82V31.916L173.111 32.108V31.328C172.815 31.552 172.471 31.74 172.079 31.892C171.695 32.044 171.291 32.12 170.867 32.12C170.235 32.12 169.735 31.972 169.367 31.676C168.999 31.372 168.815 30.964 168.815 30.452V26.432C168.463 26.368 168.183 26.296 167.975 26.216V26.132L169.895 25.928V30.332C169.895 30.812 170.007 31.16 170.231 31.376C170.463 31.592 170.775 31.7 171.167 31.7C171.463 31.7 171.791 31.624 172.151 31.472C172.519 31.32 172.839 31.124 173.111 30.884V26.432C172.775 26.368 172.499 26.296 172.283 26.216V26.132L174.191 25.928V31.628ZM185.481 31.64C185.801 31.688 186.121 31.764 186.441 31.868V32H183.477V31.868C183.845 31.748 184.149 31.672 184.389 31.64V27.704C184.389 27.224 184.273 26.88 184.041 26.672C183.817 26.456 183.513 26.348 183.129 26.348C182.841 26.348 182.561 26.432 182.289 26.6C182.017 26.76 181.769 26.976 181.545 27.248C181.569 27.368 181.581 27.488 181.581 27.608V31.64C181.893 31.688 182.193 31.764 182.481 31.868V32H179.637V31.868C180.013 31.748 180.313 31.672 180.537 31.64V27.704C180.537 26.8 180.125 26.348 179.301 26.348C179.013 26.348 178.729 26.432 178.449 26.6C178.177 26.76 177.933 26.98 177.717 27.26V31.64C178.037 31.688 178.357 31.764 178.677 31.868V32H175.677V31.868C175.997 31.764 176.317 31.688 176.637 31.64V26.432C176.301 26.368 176.021 26.296 175.797 26.216V26.132L177.717 25.928V26.792C177.949 26.552 178.225 26.348 178.545 26.18C178.873 26.004 179.233 25.916 179.625 25.916C180.073 25.916 180.453 26.004 180.765 26.18C181.085 26.348 181.313 26.592 181.449 26.912C181.681 26.632 181.973 26.396 182.325 26.204C182.677 26.012 183.069 25.916 183.501 25.916C184.093 25.916 184.569 26.068 184.929 26.372C185.297 26.676 185.481 27.088 185.481 27.608V31.64Z" fill="#0D3E5B"/>
</svg>
