<svg width="184" height="40" viewBox="0 0 184 40" fill="none" xmlns="http://www.w3.org/2000/svg">
<circle cx="80" cy="20" r="3" fill="#E3F2FB"/>
<circle cx="80" cy="28" r="5" fill="#5B8387"/>
<circle cx="80" cy="11" r="4" fill="#F5CF73"/>
<path d="M20.584 32.32C17.32 32.32 14.8347 31.3067 13.128 29.28C11.4427 27.2533 10.6 24.4267 10.6 20.8C10.6 17.216 11.464 14.4 13.192 12.352C14.9413 10.304 17.4053 9.28 20.584 9.28C23.208 9.28 25.2987 9.984 26.856 11.392L26.6 15.04H25.992C25.7787 14.4427 25.5867 13.312 25.416 11.648C24.9467 11.264 24.328 10.944 23.56 10.688C22.8133 10.432 22.0133 10.304 21.16 10.304C18.3653 10.304 16.2853 11.264 14.92 13.184C13.576 15.0827 12.904 17.6213 12.904 20.8C12.904 24.0213 13.544 26.5813 14.824 28.48C16.1253 30.3573 18.1947 31.296 21.032 31.296C21.8 31.296 22.6853 31.1573 23.688 30.88C24.712 30.5813 25.64 30.1653 26.472 29.632L26.824 30.336C26.0987 30.976 25.192 31.4667 24.104 31.808C23.0373 32.1493 21.864 32.32 20.584 32.32ZM36.6645 32.32C35.0432 32.32 33.6032 32.0533 32.3445 31.52C31.0858 30.9653 30.1045 30.2613 29.4005 29.408L29.6885 25.152H30.2645C30.4992 25.7707 30.6805 27.0507 30.8085 28.992C31.3632 29.696 32.0885 30.2613 32.9845 30.688C33.9018 31.0933 34.9472 31.296 36.1205 31.296C37.1018 31.296 38.0192 31.1147 38.8725 30.752C39.7472 30.3893 40.4405 29.856 40.9525 29.152C41.4858 28.4267 41.7525 27.5733 41.7525 26.592C41.7525 25.568 41.4858 24.704 40.9525 24C40.4405 23.296 39.8005 22.7307 39.0325 22.304C38.2858 21.856 37.2405 21.3227 35.8965 20.704C34.5525 20.1067 33.4752 19.5733 32.6645 19.104C31.8752 18.6133 31.2032 17.9947 30.6485 17.248C30.0938 16.48 29.8165 15.552 29.8165 14.464C29.8165 12.7573 30.4565 11.4667 31.7365 10.592C33.0165 9.71733 34.7552 9.28 36.9525 9.28C39.7472 9.28 41.8485 10.0373 43.2565 11.552L42.9685 15.104H42.3925C42.1578 14.528 41.9658 13.4187 41.8165 11.776C41.3258 11.3067 40.7178 10.944 39.9925 10.688C39.2672 10.432 38.4565 10.304 37.5605 10.304C35.7472 10.304 34.3818 10.6453 33.4645 11.328C32.5685 11.9893 32.1205 12.9387 32.1205 14.176C32.1205 14.9227 32.3445 15.5733 32.7925 16.128C33.2405 16.6827 33.7952 17.152 34.4565 17.536C35.1392 17.92 36.0672 18.3787 37.2405 18.912C38.6912 19.5733 39.8645 20.1813 40.7605 20.736C41.6778 21.2907 42.4565 22.0267 43.0965 22.944C43.7365 23.84 44.0565 24.9387 44.0565 26.24C44.0565 27.456 43.7365 28.5227 43.0965 29.44C42.4565 30.3573 41.5712 31.072 40.4405 31.584C39.3312 32.0747 38.0725 32.32 36.6645 32.32ZM46.5635 31.712C47.4382 31.4347 48.3022 31.2533 49.1555 31.168V10.496C48.1742 10.3467 47.3102 10.1547 46.5635 9.92V9.6H51.9715L59.3955 27.392L67.1715 9.6H72.4835V9.92C71.8648 10.1333 71.0008 10.336 69.8915 10.528V31.168C70.7448 31.2533 71.6088 31.4347 72.4835 31.712V32H65.0275V31.712C65.7955 31.456 66.6595 31.264 67.6195 31.136V11.328L59.6195 29.504H58.3075L50.4355 11.2V31.136C51.3315 31.264 52.1955 31.456 53.0275 31.712V32H46.5635V31.712Z" fill="#E3F2FB"/>
<path d="M92.416 17.12C91.152 17.12 90.192 16.74 89.536 15.98C88.888 15.22 88.564 14.16 88.564 12.8C88.564 11.448 88.896 10.392 89.56 9.632C90.224 8.864 91.172 8.48 92.404 8.48C93.452 8.48 94.28 8.756 94.888 9.308L94.78 10.772H94.492C94.396 10.492 94.32 10.044 94.264 9.428C94.072 9.276 93.84 9.156 93.568 9.068C93.296 8.972 93.004 8.924 92.692 8.924C91.692 8.924 90.94 9.276 90.436 9.98C89.94 10.684 89.692 11.624 89.692 12.8C89.692 13.992 89.924 14.936 90.388 15.632C90.86 16.328 91.6 16.676 92.608 16.676C92.912 16.676 93.256 16.62 93.64 16.508C94.032 16.396 94.388 16.236 94.708 16.028L94.864 16.352C94.584 16.6 94.228 16.792 93.796 16.928C93.372 17.056 92.912 17.12 92.416 17.12ZM98.9097 17.12C97.9097 17.12 97.1297 16.848 96.5697 16.304C96.0177 15.76 95.7417 15 95.7417 14.024C95.7417 13.048 96.0177 12.288 96.5697 11.744C97.1297 11.192 97.9097 10.916 98.9097 10.916C99.9017 10.916 100.674 11.192 101.226 11.744C101.786 12.288 102.066 13.048 102.066 14.024C102.066 15 101.786 15.76 101.226 16.304C100.674 16.848 99.9017 17.12 98.9097 17.12ZM98.9097 16.7C99.5417 16.7 100.046 16.464 100.422 15.992C100.798 15.512 100.986 14.856 100.986 14.024C100.986 13.192 100.798 12.54 100.422 12.068C100.046 11.588 99.5417 11.348 98.9097 11.348C98.2617 11.348 97.7497 11.588 97.3737 12.068C97.0057 12.54 96.8217 13.192 96.8217 14.024C96.8217 14.856 97.0057 15.512 97.3737 15.992C97.7497 16.464 98.2617 16.7 98.9097 16.7ZM112.567 16.64C112.887 16.688 113.207 16.764 113.527 16.868V17H110.563V16.868C110.931 16.748 111.235 16.672 111.475 16.64V12.704C111.475 12.224 111.359 11.88 111.127 11.672C110.903 11.456 110.599 11.348 110.215 11.348C109.927 11.348 109.647 11.432 109.375 11.6C109.103 11.76 108.855 11.976 108.631 12.248C108.655 12.368 108.667 12.488 108.667 12.608V16.64C108.979 16.688 109.279 16.764 109.567 16.868V17H106.723V16.868C107.099 16.748 107.399 16.672 107.623 16.64V12.704C107.623 11.8 107.211 11.348 106.387 11.348C106.099 11.348 105.815 11.432 105.535 11.6C105.263 11.76 105.019 11.98 104.803 12.26V16.64C105.123 16.688 105.443 16.764 105.763 16.868V17H102.763V16.868C103.083 16.764 103.403 16.688 103.723 16.64V11.432C103.387 11.368 103.107 11.296 102.883 11.216V11.132L104.803 10.928V11.792C105.035 11.552 105.311 11.348 105.631 11.18C105.959 11.004 106.319 10.916 106.711 10.916C107.159 10.916 107.539 11.004 107.851 11.18C108.171 11.348 108.399 11.592 108.535 11.912C108.767 11.632 109.059 11.396 109.411 11.204C109.763 11.012 110.155 10.916 110.587 10.916C111.179 10.916 111.655 11.068 112.015 11.372C112.383 11.676 112.567 12.088 112.567 12.608V16.64ZM123.946 16.64C124.266 16.688 124.586 16.764 124.906 16.868V17H121.942V16.868C122.31 16.748 122.614 16.672 122.854 16.64V12.704C122.854 12.224 122.738 11.88 122.506 11.672C122.282 11.456 121.978 11.348 121.594 11.348C121.306 11.348 121.026 11.432 120.754 11.6C120.482 11.76 120.234 11.976 120.01 12.248C120.034 12.368 120.046 12.488 120.046 12.608V16.64C120.358 16.688 120.658 16.764 120.946 16.868V17H118.102V16.868C118.478 16.748 118.778 16.672 119.002 16.64V12.704C119.002 11.8 118.59 11.348 117.766 11.348C117.478 11.348 117.194 11.432 116.914 11.6C116.642 11.76 116.398 11.98 116.182 12.26V16.64C116.502 16.688 116.822 16.764 117.142 16.868V17H114.142V16.868C114.462 16.764 114.782 16.688 115.102 16.64V11.432C114.766 11.368 114.486 11.296 114.262 11.216V11.132L116.182 10.928V11.792C116.414 11.552 116.69 11.348 117.01 11.18C117.338 11.004 117.698 10.916 118.09 10.916C118.538 10.916 118.918 11.004 119.23 11.18C119.55 11.348 119.778 11.592 119.914 11.912C120.146 11.632 120.438 11.396 120.79 11.204C121.142 11.012 121.534 10.916 121.966 10.916C122.558 10.916 123.034 11.068 123.394 11.372C123.762 11.676 123.946 12.088 123.946 12.608V16.64ZM131.628 16.628C131.86 16.66 132.14 16.724 132.468 16.82V16.916L130.548 17.108V16.328C130.252 16.552 129.908 16.74 129.516 16.892C129.132 17.044 128.728 17.12 128.304 17.12C127.672 17.12 127.172 16.972 126.804 16.676C126.436 16.372 126.252 15.964 126.252 15.452V11.432C125.9 11.368 125.62 11.296 125.412 11.216V11.132L127.332 10.928V15.332C127.332 15.812 127.444 16.16 127.668 16.376C127.9 16.592 128.212 16.7 128.604 16.7C128.9 16.7 129.228 16.624 129.588 16.472C129.956 16.32 130.276 16.124 130.548 15.884V11.432C130.212 11.368 129.936 11.296 129.72 11.216V11.132L131.628 10.928V16.628ZM139.462 16.64C139.838 16.696 140.158 16.772 140.422 16.868V17H137.47V16.868C137.814 16.756 138.118 16.68 138.382 16.64V12.704C138.382 12.224 138.266 11.88 138.034 11.672C137.802 11.456 137.494 11.348 137.11 11.348C136.79 11.348 136.454 11.432 136.102 11.6C135.75 11.76 135.434 11.992 135.154 12.296V16.64C135.474 16.688 135.794 16.764 136.114 16.868V17H133.114V16.868C133.434 16.764 133.754 16.688 134.074 16.64V11.432C133.738 11.368 133.458 11.296 133.234 11.216V11.132L135.154 10.928V11.84C135.434 11.568 135.774 11.348 136.174 11.18C136.582 11.004 137.018 10.916 137.482 10.916C138.074 10.916 138.55 11.068 138.91 11.372C139.278 11.676 139.462 12.088 139.462 12.608V16.64ZM142.392 10.388C142.192 10.388 142.028 10.328 141.9 10.208C141.78 10.088 141.72 9.932 141.72 9.74C141.72 9.548 141.78 9.392 141.9 9.272C142.028 9.144 142.192 9.08 142.392 9.08C142.592 9.08 142.752 9.144 142.872 9.272C143 9.392 143.064 9.548 143.064 9.74C143.064 9.932 143 10.088 142.872 10.208C142.752 10.328 142.592 10.388 142.392 10.388ZM140.976 16.868C141.128 16.812 141.312 16.764 141.528 16.724C141.744 16.676 141.88 16.648 141.936 16.64V11.444C141.616 11.388 141.336 11.32 141.096 11.24V11.144L143.016 10.952V16.64C143.384 16.704 143.704 16.78 143.976 16.868V17H140.976V16.868ZM148.569 16.94C148.209 17.06 147.801 17.12 147.345 17.12C146.777 17.12 146.333 16.976 146.013 16.688C145.693 16.4 145.533 15.956 145.533 15.356V11.456H144.489V11.024H145.533V10.364C145.837 10.236 146.025 9.916 146.097 9.404H146.613V11.024H148.413V11.456H146.613V15.356C146.613 15.836 146.705 16.176 146.889 16.376C147.081 16.576 147.353 16.676 147.705 16.676C147.937 16.676 148.197 16.628 148.485 16.532L148.569 16.94ZM155.599 11.024V11.156C155.399 11.228 155.123 11.296 154.771 11.36L152.455 17.552C152.295 17.984 152.143 18.32 151.999 18.56C151.863 18.8 151.683 18.984 151.459 19.112C151.235 19.24 150.939 19.304 150.571 19.304C150.187 19.304 149.819 19.232 149.467 19.088L149.635 18.56C149.987 18.672 150.295 18.728 150.559 18.728C150.799 18.728 150.991 18.688 151.135 18.608C151.279 18.528 151.411 18.388 151.531 18.188C151.651 17.996 151.783 17.708 151.927 17.324L152.059 16.964L149.755 11.348C149.403 11.308 149.135 11.244 148.951 11.156V11.024H151.735V11.168C151.543 11.24 151.227 11.308 150.787 11.372L152.479 15.836L154.135 11.348C153.815 11.324 153.523 11.264 153.259 11.168V11.024H155.599ZM91.216 32.12C90.592 32.12 90.032 32.02 89.536 31.82C89.048 31.612 88.672 31.344 88.408 31.016L88.528 29.384H88.804C88.876 29.584 88.948 30.076 89.02 30.86C89.228 31.108 89.496 31.308 89.824 31.46C90.152 31.604 90.524 31.676 90.94 31.676C91.508 31.676 91.992 31.528 92.392 31.232C92.792 30.928 92.992 30.504 92.992 29.96C92.992 29.6 92.896 29.296 92.704 29.048C92.512 28.792 92.276 28.584 91.996 28.424C91.716 28.264 91.34 28.08 90.868 27.872C90.356 27.648 89.948 27.448 89.644 27.272C89.34 27.096 89.08 26.864 88.864 26.576C88.656 26.28 88.552 25.916 88.552 25.484C88.552 24.828 88.804 24.332 89.308 23.996C89.812 23.652 90.492 23.48 91.348 23.48C92.444 23.48 93.268 23.768 93.82 24.344L93.7 25.748H93.424C93.32 25.452 93.244 25.02 93.196 24.452C93.012 24.284 92.784 24.156 92.512 24.068C92.248 23.972 91.952 23.924 91.624 23.924C90.984 23.924 90.5 24.044 90.172 24.284C89.844 24.524 89.68 24.872 89.68 25.328C89.68 25.592 89.76 25.824 89.92 26.024C90.088 26.216 90.292 26.384 90.532 26.528C90.78 26.664 91.116 26.824 91.54 27.008C92.092 27.248 92.536 27.472 92.872 27.68C93.216 27.88 93.508 28.156 93.748 28.508C93.996 28.852 94.12 29.28 94.12 29.792C94.12 30.264 93.992 30.676 93.736 31.028C93.488 31.38 93.144 31.652 92.704 31.844C92.264 32.028 91.768 32.12 91.216 32.12ZM98.0071 32.12C97.3751 32.12 96.8231 31.992 96.3511 31.736C95.8871 31.48 95.5271 31.12 95.2711 30.656C95.0231 30.184 94.8991 29.64 94.8991 29.024C94.8991 28.048 95.1831 27.288 95.7511 26.744C96.3271 26.192 97.0951 25.916 98.0551 25.916C98.9191 25.916 99.6351 26.156 100.203 26.636L100.119 27.944H99.8791C99.8311 27.824 99.7911 27.648 99.7591 27.416C99.7271 27.176 99.7071 26.96 99.6991 26.768C99.2751 26.488 98.8271 26.348 98.3551 26.348C97.5951 26.348 97.0111 26.584 96.6031 27.056C96.1951 27.528 95.9911 28.208 95.9911 29.096C95.9911 29.552 96.0711 29.98 96.2311 30.38C96.3991 30.772 96.6551 31.092 96.9991 31.34C97.3431 31.588 97.7751 31.712 98.2951 31.712C98.6151 31.712 98.9391 31.66 99.2671 31.556C99.6031 31.444 99.8911 31.3 100.131 31.124L100.239 31.436C99.9991 31.636 99.6871 31.8 99.3031 31.928C98.9191 32.056 98.4871 32.12 98.0071 32.12ZM102.22 25.388C102.02 25.388 101.856 25.328 101.728 25.208C101.608 25.088 101.548 24.932 101.548 24.74C101.548 24.548 101.608 24.392 101.728 24.272C101.856 24.144 102.02 24.08 102.22 24.08C102.42 24.08 102.58 24.144 102.7 24.272C102.828 24.392 102.892 24.548 102.892 24.74C102.892 24.932 102.828 25.088 102.7 25.208C102.58 25.328 102.42 25.388 102.22 25.388ZM100.804 31.868C100.956 31.812 101.14 31.764 101.356 31.724C101.572 31.676 101.708 31.648 101.764 31.64V26.444C101.444 26.388 101.164 26.32 100.924 26.24V26.144L102.844 25.952V31.64C103.212 31.704 103.532 31.78 103.804 31.868V32H100.804V31.868ZM110.161 29.024H105.541C105.549 29.808 105.749 30.452 106.141 30.956C106.541 31.46 107.117 31.712 107.869 31.712C108.189 31.712 108.521 31.66 108.865 31.556C109.217 31.444 109.521 31.3 109.777 31.124L109.885 31.436C109.653 31.628 109.333 31.792 108.925 31.928C108.525 32.056 108.085 32.12 107.605 32.12C106.973 32.12 106.417 31.992 105.937 31.736C105.465 31.472 105.097 31.108 104.833 30.644C104.577 30.172 104.449 29.632 104.449 29.024C104.449 28.04 104.717 27.276 105.253 26.732C105.797 26.188 106.541 25.916 107.485 25.916C108.085 25.916 108.585 26.044 108.985 26.3C109.385 26.556 109.681 26.9 109.873 27.332C110.065 27.756 110.161 28.228 110.161 28.748V29.024ZM109.201 28.604C109.201 28.244 109.145 27.892 109.033 27.548C108.921 27.204 108.737 26.92 108.481 26.696C108.233 26.464 107.909 26.348 107.509 26.348C106.909 26.348 106.445 26.56 106.117 26.984C105.797 27.408 105.609 27.948 105.553 28.604H109.201ZM117.255 31.64C117.631 31.696 117.951 31.772 118.215 31.868V32H115.263V31.868C115.607 31.756 115.911 31.68 116.175 31.64V27.704C116.175 27.224 116.059 26.88 115.827 26.672C115.595 26.456 115.287 26.348 114.903 26.348C114.583 26.348 114.247 26.432 113.895 26.6C113.543 26.76 113.227 26.992 112.947 27.296V31.64C113.267 31.688 113.587 31.764 113.907 31.868V32H110.907V31.868C111.227 31.764 111.547 31.688 111.867 31.64V26.432C111.531 26.368 111.251 26.296 111.027 26.216V26.132L112.947 25.928V26.84C113.227 26.568 113.567 26.348 113.967 26.18C114.375 26.004 114.811 25.916 115.275 25.916C115.867 25.916 116.343 26.068 116.703 26.372C117.071 26.676 117.255 27.088 117.255 27.608V31.64ZM121.925 32.12C121.293 32.12 120.741 31.992 120.269 31.736C119.805 31.48 119.445 31.12 119.189 30.656C118.941 30.184 118.817 29.64 118.817 29.024C118.817 28.048 119.101 27.288 119.669 26.744C120.245 26.192 121.013 25.916 121.973 25.916C122.837 25.916 123.553 26.156 124.121 26.636L124.037 27.944H123.797C123.749 27.824 123.709 27.648 123.677 27.416C123.645 27.176 123.625 26.96 123.617 26.768C123.193 26.488 122.745 26.348 122.273 26.348C121.513 26.348 120.929 26.584 120.521 27.056C120.113 27.528 119.909 28.208 119.909 29.096C119.909 29.552 119.989 29.98 120.149 30.38C120.317 30.772 120.573 31.092 120.917 31.34C121.261 31.588 121.693 31.712 122.213 31.712C122.533 31.712 122.857 31.66 123.185 31.556C123.521 31.444 123.809 31.3 124.049 31.124L124.157 31.436C123.917 31.636 123.605 31.8 123.221 31.928C122.837 32.056 122.405 32.12 121.925 32.12ZM130.446 29.024H125.826C125.834 29.808 126.034 30.452 126.426 30.956C126.826 31.46 127.402 31.712 128.154 31.712C128.474 31.712 128.806 31.66 129.15 31.556C129.502 31.444 129.806 31.3 130.062 31.124L130.17 31.436C129.938 31.628 129.618 31.792 129.21 31.928C128.81 32.056 128.37 32.12 127.89 32.12C127.258 32.12 126.702 31.992 126.222 31.736C125.75 31.472 125.382 31.108 125.118 30.644C124.862 30.172 124.734 29.632 124.734 29.024C124.734 28.04 125.002 27.276 125.538 26.732C126.082 26.188 126.826 25.916 127.77 25.916C128.37 25.916 128.87 26.044 129.27 26.3C129.67 26.556 129.966 26.9 130.158 27.332C130.35 27.756 130.446 28.228 130.446 28.748V29.024ZM129.486 28.604C129.486 28.244 129.43 27.892 129.318 27.548C129.206 27.204 129.022 26.92 128.766 26.696C128.518 26.464 128.194 26.348 127.794 26.348C127.194 26.348 126.73 26.56 126.402 26.984C126.082 27.408 125.894 27.948 125.838 28.604H129.486ZM134.429 31.868C134.725 31.78 135.045 31.708 135.389 31.652V23.972C135.005 23.916 134.685 23.84 134.429 23.744V23.6H136.673L139.361 30.128L142.205 23.6H144.425V23.744C144.129 23.84 143.809 23.92 143.465 23.984V31.652C143.809 31.708 144.129 31.78 144.425 31.868V32H141.389V31.868C141.661 31.78 141.981 31.704 142.349 31.64V24.44L139.445 31.076H138.797L135.941 24.368V31.64C136.309 31.704 136.629 31.78 136.901 31.868V32H134.429V31.868ZM151.386 31.628C151.618 31.66 151.898 31.724 152.226 31.82V31.916L150.306 32.108V31.328C150.01 31.552 149.666 31.74 149.274 31.892C148.89 32.044 148.486 32.12 148.062 32.12C147.43 32.12 146.93 31.972 146.562 31.676C146.194 31.372 146.01 30.964 146.01 30.452V26.432C145.658 26.368 145.378 26.296 145.17 26.216V26.132L147.09 25.928V30.332C147.09 30.812 147.202 31.16 147.426 31.376C147.658 31.592 147.97 31.7 148.362 31.7C148.658 31.7 148.986 31.624 149.346 31.472C149.714 31.32 150.034 31.124 150.306 30.884V26.432C149.97 26.368 149.694 26.296 149.478 26.216V26.132L151.386 25.928V31.628ZM155.344 32.12C154.816 32.12 154.352 32.056 153.952 31.928C153.552 31.8 153.228 31.624 152.98 31.4L153.064 29.9H153.316C153.356 30.012 153.392 30.212 153.424 30.5C153.464 30.788 153.488 31.036 153.496 31.244C153.856 31.548 154.344 31.7 154.96 31.7C155.456 31.7 155.844 31.592 156.124 31.376C156.412 31.152 156.556 30.856 156.556 30.488C156.556 30.184 156.428 29.948 156.172 29.78C155.916 29.604 155.524 29.424 154.996 29.24C154.556 29.072 154.204 28.924 153.94 28.796C153.676 28.66 153.448 28.476 153.256 28.244C153.072 28.012 152.98 27.72 152.98 27.368C152.98 26.888 153.192 26.528 153.616 26.288C154.04 26.04 154.572 25.916 155.212 25.916C156.116 25.916 156.816 26.124 157.312 26.54L157.204 27.776H156.94C156.892 27.656 156.852 27.492 156.82 27.284C156.796 27.076 156.784 26.88 156.784 26.696C156.424 26.456 155.976 26.336 155.44 26.336C155.016 26.336 154.676 26.412 154.42 26.564C154.164 26.708 154.036 26.932 154.036 27.236C154.036 27.452 154.104 27.636 154.24 27.788C154.384 27.94 154.56 28.068 154.768 28.172C154.976 28.276 155.26 28.396 155.62 28.532C156.06 28.7 156.412 28.856 156.676 29C156.94 29.136 157.164 29.32 157.348 29.552C157.54 29.784 157.636 30.072 157.636 30.416C157.636 30.968 157.42 31.392 156.988 31.688C156.556 31.976 156.008 32.12 155.344 32.12ZM164.337 29.024H159.717C159.725 29.808 159.925 30.452 160.317 30.956C160.717 31.46 161.293 31.712 162.045 31.712C162.365 31.712 162.697 31.66 163.041 31.556C163.393 31.444 163.697 31.3 163.953 31.124L164.061 31.436C163.829 31.628 163.509 31.792 163.101 31.928C162.701 32.056 162.261 32.12 161.781 32.12C161.149 32.12 160.593 31.992 160.113 31.736C159.641 31.472 159.273 31.108 159.009 30.644C158.753 30.172 158.625 29.632 158.625 29.024C158.625 28.04 158.893 27.276 159.429 26.732C159.973 26.188 160.717 25.916 161.661 25.916C162.261 25.916 162.761 26.044 163.161 26.3C163.561 26.556 163.857 26.9 164.049 27.332C164.241 27.756 164.337 28.228 164.337 28.748V29.024ZM163.377 28.604C163.377 28.244 163.321 27.892 163.209 27.548C163.097 27.204 162.913 26.92 162.657 26.696C162.409 26.464 162.085 26.348 161.685 26.348C161.085 26.348 160.621 26.56 160.293 26.984C159.973 27.408 159.785 27.948 159.729 28.604H163.377ZM171.191 31.628C171.423 31.66 171.703 31.724 172.031 31.82V31.916L170.111 32.108V31.328C169.815 31.552 169.471 31.74 169.079 31.892C168.695 32.044 168.291 32.12 167.867 32.12C167.235 32.12 166.735 31.972 166.367 31.676C165.999 31.372 165.815 30.964 165.815 30.452V26.432C165.463 26.368 165.183 26.296 164.975 26.216V26.132L166.895 25.928V30.332C166.895 30.812 167.007 31.16 167.231 31.376C167.463 31.592 167.775 31.7 168.167 31.7C168.463 31.7 168.791 31.624 169.151 31.472C169.519 31.32 169.839 31.124 170.111 30.884V26.432C169.775 26.368 169.499 26.296 169.283 26.216V26.132L171.191 25.928V31.628ZM182.481 31.64C182.801 31.688 183.121 31.764 183.441 31.868V32H180.477V31.868C180.845 31.748 181.149 31.672 181.389 31.64V27.704C181.389 27.224 181.273 26.88 181.041 26.672C180.817 26.456 180.513 26.348 180.129 26.348C179.841 26.348 179.561 26.432 179.289 26.6C179.017 26.76 178.769 26.976 178.545 27.248C178.569 27.368 178.581 27.488 178.581 27.608V31.64C178.893 31.688 179.193 31.764 179.481 31.868V32H176.637V31.868C177.013 31.748 177.313 31.672 177.537 31.64V27.704C177.537 26.8 177.125 26.348 176.301 26.348C176.013 26.348 175.729 26.432 175.449 26.6C175.177 26.76 174.933 26.98 174.717 27.26V31.64C175.037 31.688 175.357 31.764 175.677 31.868V32H172.677V31.868C172.997 31.764 173.317 31.688 173.637 31.64V26.432C173.301 26.368 173.021 26.296 172.797 26.216V26.132L174.717 25.928V26.792C174.949 26.552 175.225 26.348 175.545 26.18C175.873 26.004 176.233 25.916 176.625 25.916C177.073 25.916 177.453 26.004 177.765 26.18C178.085 26.348 178.313 26.592 178.449 26.912C178.681 26.632 178.973 26.396 179.325 26.204C179.677 26.012 180.069 25.916 180.501 25.916C181.093 25.916 181.569 26.068 181.929 26.372C182.297 26.676 182.481 27.088 182.481 27.608V31.64Z" fill="#E3F2FB"/>
</svg>
